<svg width="206" height="96" viewBox="0 0 206 96" fill="none" xmlns="http://www.w3.org/2000/svg">
<path d="M109.613 0.022441C111.776 -0.0773798 115.462 0.174441 117.667 0.410381C131.068 1.84468 146.077 7.29247 158.231 13.4007C175.255 21.9571 198.05 37.4432 204.797 56.2722C206.628 61.3838 205.618 68.528 203.112 73.3522C199.127 81.0258 192.422 87.4153 184.147 90.2428C180.224 91.5831 174.664 91.0563 170.551 90.6078C153.931 88.6626 137.805 83.7051 122.962 75.978C116.346 80.8455 109.693 83.8981 102.117 86.897C100.122 87.7738 96.8024 88.8877 94.6636 89.5494C81.2946 93.6849 66.1804 96.0327 52.1288 95.9328C40.8907 95.8532 25.7466 94.2656 15.5621 89.0215C13.9723 88.2028 11.4649 86.0163 10.223 84.7257C3.23501 77.4622 -0.213604 68.2457 0.0102363 58.1981C0.18089 50.5386 4.18708 43.7936 9.61522 38.6498C24.4522 24.5894 52.399 17.0263 72.1605 15.0873C76.4508 14.6537 80.764 14.4937 85.0745 14.6081C86.022 12.1239 88.1825 9.1941 89.9423 7.22516C94.8567 1.7267 102.515 0.302998 109.613 0.022441ZM199.415 66.9805C197.628 70.3888 193.383 73.0714 189.778 74.0902C171.5 79.257 148.858 70.0518 132.979 61.8972C116.976 53.6794 98.8671 41.6835 93.2109 23.7599C91.6274 18.7426 90.52 12.4816 92.8403 7.54328C92.4249 7.96072 91.8484 8.50545 91.497 8.9559C86.7581 14.2308 82.3458 25.3197 82.6816 32.3835C83.0924 41.0266 93.2008 51.0947 99.341 56.5972C116.423 71.9048 136.837 82.052 159.304 86.6238C165.662 87.9174 172.486 89.1622 179.034 88.9048C185.799 88.6389 192.14 84.2105 196.5 79.2716C200.748 74.459 204.134 68.1108 203.665 61.468C202.931 51.0679 192.64 40.1693 185.196 33.6197C178.796 27.9892 168.528 21.2326 161.144 17.2597C147.667 10.0088 125.944 1.65662 110.568 2.16657C105.929 2.47788 98.0416 2.71104 94.7584 6.33661C92.9059 8.38218 92.5346 11.7194 92.7067 14.3598C93.4466 25.721 100.48 36.2387 108.868 43.5516C126.207 58.6689 160.258 75.3007 183.623 73.6577C189.33 73.2564 195.522 71.4165 199.415 66.9805ZM2.34065 54.6532C3.03864 56.4081 3.75024 58.1809 4.77189 59.7758C8.34553 65.3552 14.3136 69.3916 20.3102 71.9592C37.623 79.3727 57.1884 78.9409 75.3467 75.2906C82.3718 73.8785 89.7025 71.8362 96.3774 69.2207C99.3451 68.0579 103.222 66.3567 105.903 64.6872C105.117 64.0104 104.516 63.4865 103.64 62.929C87.9156 70.0364 71.5256 74.3839 54.1605 74.2427C41.964 74.1404 30.4067 73.176 19.3548 67.5215C14.3912 64.9818 8.92454 61.1035 8.12295 55.1429C5.98008 39.2099 27.7393 30.2679 39.627 25.7679C40.4301 25.4639 41.7041 25.2385 42.3312 25.8982C42.0081 27.4429 34.18 29.9851 32.5019 30.5565C22.4835 33.9688 3.77822 46.4472 11.9192 58.9727C12.5158 59.8764 13.2085 60.7132 13.9852 61.4682C27.0425 47.0983 54.4847 39.946 73.1305 38.1379C75.7049 37.8883 78.3265 37.5616 80.912 37.4011C81.1144 37.3885 81.3352 37.3915 81.5384 37.394C81.1187 35.7195 80.8661 34.4964 80.7424 32.7443C80.4265 28.2783 82.1668 20.7012 84.2739 16.625C83.3501 16.6242 82.3554 16.605 81.4391 16.657C75.11 16.997 69.12 17.3595 62.8238 18.4437C43.0481 21.8482 7.66997 32.3135 2.34065 54.6532ZM15.4784 62.6567C21.0878 66.736 26.672 68.7715 33.3834 70.3543C34.2221 70.5519 36.9944 71.1486 37.7113 71.1576C40.7598 71.744 45.009 72.0845 48.1254 72.2151C61.6857 72.7137 75.2308 70.8771 88.1684 66.7857C93.105 65.2359 97.1694 63.3618 101.876 61.6641C95.319 55.9259 88.7167 49.6183 84.0649 42.1579C83.5373 41.3115 82.975 40.3548 82.404 39.5457C81.9906 39.5545 81.3383 39.5472 80.947 39.5893C59.4039 40.74 31.4649 47.1371 15.4784 62.6567ZM107.712 66.1023C102.546 69.2635 96.2895 71.684 90.5341 73.5395C73.6223 78.9923 55.2991 81.3184 37.6031 78.8312C25.1323 77.0783 11.1856 71.0639 4.00105 60.2192C3.49439 59.4546 2.70389 57.4938 2.17302 56.909C1.3495 65.5573 4.23573 74.3227 9.71126 81.0391C10.929 82.5332 13.5967 85.3549 15.148 86.2946C22.7954 90.9269 34.5707 92.7797 43.3017 93.4739C65.7649 95.2598 90.7091 90.7265 110.941 80.7896C114.498 79.0422 117.633 77.0483 120.884 74.8911C120.421 74.6423 119.943 74.3756 119.476 74.1394C116.751 75.9029 114.079 77.6578 111.181 79.1509C99.0721 85.3912 85.6908 89.0258 72.2747 91.1115C71.0658 91.2993 64.4396 92.2281 63.7209 92.0925C65.1388 91.5228 67.8453 91.2231 69.4137 90.8364C74.0493 89.866 84.2328 87.318 88.237 85.1368C88.4475 84.7181 88.6567 84.2614 88.9267 83.8843C90.858 83.0298 95.0704 81.3762 97.0976 81.0868C95.409 81.962 93.8552 82.91 92.2318 83.8979C97.0575 82.4051 103.56 78.8758 107.742 76.062C103.432 77.7188 101.039 78.652 96.5171 79.7097C102.199 76.7519 108.618 74.5284 113.76 70.502C111.759 69.0153 109.743 67.5487 107.712 66.1023Z" fill="#063E93"/>
<path d="M113.264 3.92781C116.339 3.86102 120.357 4.48313 123.321 4.91291C125.881 5.28396 138.737 7.99627 139.933 9.6849L139.681 9.90622C139.93 10.4605 140.606 10.879 141.013 11.7567C138.045 11.6541 134.203 10.5208 131.2 9.87799C127.209 9.03052 123.149 8.55486 119.07 8.45706C113.368 8.36555 108.186 9.6786 102.931 11.6738C102.489 11.8416 100.243 12.3042 100.117 12.5608C99.5169 13.7836 99.6832 15.9688 99.7442 17.2698C102.181 17.8861 104.607 18.511 107.059 19.1157C108.872 19.5629 110.834 19.855 112.644 20.3713C137.058 27.3355 161.684 39.0544 180.557 56.2722C183.84 59.2669 187.885 63.6681 190.062 67.426C194.35 65.5543 197.467 61.8435 196.848 56.9856C195.547 46.7784 187.133 38.2727 179.531 32.0811C177.19 30.1756 174.786 28.3489 172.324 26.6033C171.49 26.0217 166.426 22.8302 166.189 22.3478C166.854 22.5076 168.387 23.4703 169.083 23.8612C173.559 26.3746 177.978 29.2652 181.932 32.6114C189.027 38.6161 197.858 47.3718 198.887 57.0748C199.198 60.0148 198.242 63.3509 196.258 65.5788C190.968 71.5206 182.666 71.2481 175.446 70.6064C157.65 69.0125 141.676 62.0371 126.619 52.5816C113.602 44.4067 99.6467 33.0836 97.4609 16.7334C97.0909 13.9661 97.7599 10.736 99.6815 8.6141C103.186 4.74403 108.347 4.22955 113.264 3.92781ZM117.349 24.0319C126.001 29.883 129.583 34.0059 131.607 44.7477C132.253 48.1767 132.48 49.9979 132.282 53.6265C147.985 62.198 169.248 71.4143 187.547 68.2679L187.971 68.0518C187.882 67.3055 186.308 65.4588 185.791 64.8573C181.674 60.0778 177.1 55.7109 172.135 51.8189C158.696 41.2432 143.149 33.3984 127.211 27.3829C125.459 26.7222 119.012 24.2303 117.349 24.0319ZM122.579 47.8144C123.201 48.1515 123.809 48.4895 124.448 48.7948C125.683 45.2705 126.189 42.8554 126.049 39.1449C126.148 38.7156 126.13 38.6261 126.471 38.3151L126.737 38.3287C127.481 39.2339 128.334 42.8816 128.769 44.1828C129.527 46.4522 129.058 50.1995 130.029 52.351L130.24 52.3449C130.779 50.9933 129.568 44.4543 129.164 42.9149C128.747 41.3047 128.211 39.7277 127.561 38.1971C124.2 30.3982 117.12 25.4853 109.45 22.4607C106.393 21.2727 103.258 20.2979 100.067 19.5432C100.174 19.998 100.239 20.5434 100.74 20.7388C102.534 21.4375 104.359 21.8537 106.124 22.6641C114.957 26.7225 123.599 35.2615 119.922 45.7036L121.767 47.0381C122.553 45.7129 124.014 41.6591 124.613 41.1943L124.758 41.2973C125.083 43.3515 123.535 46.0482 122.579 47.8144ZM111.982 6.12639C107.369 6.51282 102.391 7.41877 100.229 12.1073C104.275 7.78377 108.327 6.66583 114.205 6.23252C114.499 6.25596 114.752 6.21134 115.049 6.18109L115.076 6.11304C114.162 5.99406 112.878 5.92574 111.982 6.12639ZM101.558 23.8214C105.394 24.9608 111.552 28.2657 114.379 30.9717C115.337 31.642 116.271 32.6301 117.107 33.4677C116.636 32.6117 115.77 31.5643 115.146 30.7776C111.554 26.8105 106.197 23.3664 100.97 22.1302C101.154 22.6397 101.422 23.312 101.558 23.8214ZM105.573 31.5618C107.667 34.9161 114.748 42.9736 118.043 44.5022L118.407 44.4873C119.135 41.3243 108.517 32.8746 105.573 31.5618Z" fill="#063E93"/>
</svg>
