<svg width="343" height="290" viewBox="0 0 343 290" fill="none" xmlns="http://www.w3.org/2000/svg">
<path d="M128.552 134.921L133.25 130.222C150.051 130.222 164.715 133.355 177.245 139.619C190.059 145.884 199.883 154.426 206.717 165.247C213.836 176.068 217.395 188.455 217.395 202.408C217.395 217.5 213.693 231.168 206.29 243.412C198.886 255.657 188.635 265.338 175.536 272.457C162.722 279.291 148.342 282.709 132.396 282.709C123.284 282.709 112.89 282.281 101.215 281.427C89.8249 280.573 79.2889 280.146 69.6073 280.146C60.2104 280.146 51.0982 280.288 42.2708 280.573C33.7282 280.858 25.8974 281 18.7785 281C18.209 281 17.9243 280.146 17.9243 278.437C17.9243 276.729 18.209 275.874 18.7785 275.874C29.0297 275.874 36.8605 275.163 42.2708 273.739C47.6812 272.315 51.383 269.467 53.3762 265.196C55.3695 260.925 56.3662 254.66 56.3662 246.402V48.64C56.3662 40.3821 55.3695 34.2599 53.3762 30.2733C51.6677 26.002 48.1083 23.1544 42.6979 21.7307C37.5724 20.0222 29.884 19.1679 19.6328 19.1679C18.7785 19.1679 18.3514 18.3136 18.3514 16.6051C18.3514 14.8966 18.7785 14.0423 19.6328 14.0423C26.4669 14.0423 34.1553 14.3271 42.6979 14.8966C51.2406 15.1813 60.2104 15.3237 69.6073 15.3237C77.0109 15.3237 85.5536 14.8966 95.2352 14.0423C104.917 13.188 113.175 12.7609 120.009 12.7609C136.809 12.7609 150.478 15.3237 161.014 20.4493C171.55 25.2901 179.238 31.9819 184.079 40.5245C189.204 49.0671 191.767 58.6064 191.767 69.1424C191.767 85.3734 185.787 99.184 173.828 110.574C162.153 121.964 147.061 130.08 128.552 134.921ZM110.612 19.1679C104.063 19.1679 98.7947 19.7374 94.8081 20.8764C90.8215 22.0154 87.974 24.7206 86.2654 28.9919C84.5569 32.9785 83.7026 39.8126 83.7026 49.4943V133.212L70.0344 129.795C79.1466 130.365 86.6926 130.792 92.6724 131.077C98.6523 131.077 102.069 131.077 102.924 131.077C124.85 131.077 140.511 125.524 149.908 114.418C159.305 103.028 164.004 89.0752 164.004 72.5594C164.004 62.593 162.153 53.6232 158.451 45.6501C155.034 37.3922 149.481 30.9852 141.793 26.4291C134.104 21.5883 123.711 19.1679 110.612 19.1679ZM125.989 275.02C147.345 275.02 162.865 269.61 172.546 258.789C182.513 247.684 187.496 232.449 187.496 213.086C187.496 191.729 181.231 174.217 168.702 160.549C156.173 146.88 138.66 140.046 116.165 140.046C109.046 139.762 101.642 139.762 93.9538 140.046C86.5502 140.331 79.0042 141.043 71.3158 142.182L83.7026 137.484V246.402C83.7026 253.236 84.6993 258.789 86.6926 263.06C88.6859 267.332 92.6724 270.464 98.6523 272.457C104.917 274.166 114.029 275.02 125.989 275.02Z" fill="#3D7ABB"/>
<path d="M128.893 253.241L122.655 247.37L284.117 75.2649L289.989 80.7693L128.893 253.241ZM81.1881 279.662C80.6988 279.662 80.4542 278.928 80.4542 277.46C80.4542 275.993 80.6988 275.259 81.1881 275.259C90.2398 275.259 97.0897 274.647 101.738 273.424C106.386 272.201 109.444 269.754 110.912 266.085C112.624 262.415 113.481 257.033 113.481 249.938V80.0354C113.481 72.9408 112.624 67.6811 110.912 64.2561C109.444 60.5865 106.386 58.1401 101.738 56.9169C97.3344 55.449 90.6068 54.7151 81.5551 54.7151C81.0658 54.7151 80.8211 53.9812 80.8211 52.5134C80.8211 51.0455 81.0658 50.3116 81.5551 50.3116C87.4264 50.3116 94.0317 50.5562 101.371 51.0455C108.955 51.2901 116.783 51.4125 124.856 51.4125C133.908 51.4125 142.104 51.2901 149.443 51.0455C156.782 50.5562 163.387 50.3116 169.259 50.3116C169.748 50.3116 169.993 51.0455 169.993 52.5134C169.993 53.9812 169.748 54.7151 169.259 54.7151C160.207 54.7151 153.357 55.449 148.709 56.9169C144.061 58.3847 140.88 60.9535 139.168 64.6231C137.7 68.2927 136.966 73.6748 136.966 80.7693V249.938C136.966 257.033 137.7 262.415 139.168 266.085C140.636 269.754 143.694 272.201 148.342 273.424C153.235 274.647 160.207 275.259 169.259 275.259C169.748 275.259 169.993 275.993 169.993 277.46C169.993 278.928 169.748 279.662 169.259 279.662C163.143 279.662 156.415 279.54 149.076 279.295C141.981 279.051 133.908 278.928 124.856 278.928C116.783 278.928 108.955 279.051 101.371 279.295C93.7871 279.54 87.0595 279.662 81.1881 279.662ZM241.183 279.662C240.694 279.662 240.449 278.928 240.449 277.46C240.449 275.993 240.694 275.259 241.183 275.259C250.724 275.259 257.696 274.647 262.1 273.424C266.748 272.201 269.806 269.754 271.274 266.085C272.742 262.415 273.476 257.033 273.476 249.938V80.7693C273.476 73.6748 272.742 68.2927 271.274 64.6231C269.806 60.9535 266.748 58.3847 262.1 56.9169C257.696 55.449 250.724 54.7151 241.183 54.7151C240.694 54.7151 240.449 53.9812 240.449 52.5134C240.449 51.0455 240.694 50.3116 241.183 50.3116C247.299 50.3116 253.904 50.5562 260.999 51.0455C268.338 51.2901 276.534 51.4125 285.585 51.4125C293.658 51.4125 301.487 51.2901 309.071 51.0455C316.655 50.5562 323.382 50.3116 329.254 50.3116C329.743 50.3116 329.988 51.0455 329.988 52.5134C329.988 53.9812 329.743 54.7151 329.254 54.7151C320.202 54.7151 313.352 55.449 308.704 56.9169C304.056 58.1401 300.998 60.5865 299.53 64.2561C298.062 67.6811 297.328 72.9408 297.328 80.0354V249.938C297.328 257.033 298.062 262.415 299.53 266.085C300.998 269.754 304.056 272.201 308.704 273.424C313.352 274.647 320.202 275.259 329.254 275.259C329.743 275.259 329.988 275.993 329.988 277.46C329.988 278.928 329.743 279.662 329.254 279.662C323.382 279.662 316.655 279.54 309.071 279.295C301.487 279.051 293.658 278.928 285.585 278.928C276.534 278.928 268.338 279.051 260.999 279.295C253.904 279.54 247.299 279.662 241.183 279.662Z" fill="#3D7ABB"/>
<path d="M196.981 93.6839C196.981 91.2338 197.567 89.0766 198.739 87.2124C199.911 85.3482 201.402 83.6438 203.213 82.0992C205.077 80.5546 207.048 79.0898 209.125 77.705C211.203 76.2669 213.147 74.7755 214.958 73.2309C216.822 71.6863 218.34 70.0351 219.512 68.2775C220.683 66.5198 221.269 64.4958 221.269 62.2055C221.269 59.8087 220.63 57.9711 219.352 56.6928C218.073 55.3612 216.396 54.6954 214.318 54.6954C212.294 54.6954 210.723 55.308 209.605 56.533C208.539 57.758 208.007 59.7021 208.007 62.3653C208.007 65.135 208.593 67.9579 209.764 70.8341C210.936 73.657 212.561 76.4533 214.638 79.223C216.715 81.9927 219.085 84.6824 221.749 87.2923C224.465 89.9022 227.315 92.3257 230.297 94.5627C233.653 97.0661 236.849 99.1167 239.885 100.715C242.921 102.259 245.477 103.245 247.554 103.671C247.821 103.724 247.927 103.91 247.874 104.23C247.821 104.496 247.714 104.629 247.554 104.629C246.383 104.629 245.025 104.629 243.48 104.629C241.935 104.629 240.417 104.629 238.926 104.629C238.233 104.629 237.328 104.416 236.209 103.99C235.091 103.564 233.653 102.818 231.895 101.753C230.191 100.635 228.087 99.0368 225.584 96.9595C222.92 94.829 220.311 92.5121 217.754 90.0087C215.197 87.5054 212.854 84.9221 210.723 82.259C208.646 79.5426 206.968 76.9061 205.69 74.3494C204.997 72.8048 204.438 71.3135 204.012 69.8754C203.586 68.4373 203.373 67.0524 203.373 65.7208C203.373 63.3773 203.932 61.2468 205.051 59.3293C206.169 57.4118 207.714 55.8938 209.685 54.7753C211.655 53.6035 213.972 53.0176 216.635 53.0176C218.073 53.0176 219.512 53.2573 220.95 53.7367C222.388 54.1628 223.586 54.9617 224.545 56.1335C225.504 57.252 225.983 58.8499 225.983 60.9272C225.983 63.2175 225.397 65.2149 224.225 66.9193C223.107 68.5704 221.615 70.115 219.751 71.5531C217.94 72.938 216.023 74.2962 213.999 75.6277C211.975 76.9061 210.057 78.2909 208.246 79.7823C206.436 81.2204 204.944 82.8449 203.772 84.6558C202.654 86.4135 202.095 88.4907 202.095 90.8876C202.095 93.1246 202.654 95.2019 203.772 97.1193C204.944 98.9835 206.542 100.475 208.566 101.593C210.59 102.659 212.88 103.191 215.437 103.191C217.94 103.191 220.257 102.659 222.388 101.593C224.518 100.475 226.329 99.0102 227.821 97.1992C229.365 95.335 230.537 93.2311 231.336 90.8876C232.188 88.4907 232.614 86.014 232.614 83.4574C232.614 81.753 232.268 80.3681 231.576 79.3029C230.936 78.2376 229.392 77.705 226.942 77.705C226.782 77.705 226.675 77.5452 226.622 77.2256C226.622 76.9061 226.729 76.7463 226.942 76.7463L243.64 76.6664C243.853 76.6664 243.959 76.8262 243.959 77.1457C243.959 77.4653 243.853 77.6251 243.64 77.6251C241.775 77.6251 240.391 77.8115 239.485 78.1844C238.58 78.5039 237.941 79.0099 237.568 79.7024C237.195 80.3948 236.849 81.2736 236.529 82.3389C236.05 84.1498 235.384 86.1205 234.532 88.2511C233.733 90.3283 232.694 92.4056 231.416 94.4828C230.191 96.5068 228.673 98.371 226.862 100.075C225.051 101.727 222.894 103.058 220.39 104.07C217.94 105.082 215.091 105.588 211.842 105.588C208.433 105.588 205.61 105.029 203.373 103.91C201.189 102.739 199.565 101.247 198.499 99.4363C197.487 97.5721 196.981 95.6546 196.981 93.6839Z" fill="#3D7ABB"/>
</svg>
